<?xml version="1.0" standalone="no"?>
<!DOCTYPE svg PUBLIC "-//W3C//DTD SVG 20010904//EN"
 "http://www.w3.org/TR/2001/REC-SVG-20010904/DTD/svg10.dtd">
<svg version="1.0" xmlns="http://www.w3.org/2000/svg"
 width="200.000000pt" height="200.000000pt" viewBox="0 0 200.000000 200.000000"
 preserveAspectRatio="xMidYMid meet">
<metadata>
Created by potrace 1.11, written by Peter Selinger 2001-2013
</metadata>
<g transform="translate(0.000000,200.000000) scale(0.100000,-0.100000)"
fill="#000000" stroke="none">
<path d="M2 1532 c0 -87 3 -164 7 -170 3 -6 40 -12 80 -14 l73 -3 129 -515
c70 -283 128 -516 129 -517 0 -6 450 -3 450 2 0 9 99 385 114 435 17 54 11 68
76 -195 28 -116 54 -218 57 -227 4 -16 23 -18 227 -18 l222 0 23 88 c13 48 43
161 67 252 128 491 184 694 192 699 6 3 42 6 81 5 l70 0 0 168 -1 168 -304 0
-304 0 1 -170 0 -170 66 2 c41 1 68 -2 70 -9 2 -6 -17 -84 -42 -174 -25 -90
-49 -177 -53 -194 -6 -25 -24 36 -96 330 -49 198 -91 365 -93 372 -3 9 -48 11
-161 10 l-156 -2 -8 -30 c-9 -34 -45 -167 -88 -325 -16 -58 -43 -159 -60 -225
-18 -66 -35 -126 -39 -132 -4 -7 -26 67 -50 165 -24 97 -48 185 -53 195 -10
19 -9 19 95 20 l57 0 0 168 0 169 -389 0 -390 0 1 -158z"/>
<path d="M1695 364 c-18 -19 -16 -33 9 -48 13 -9 20 -7 32 8 19 26 18 33 -5
46 -15 7 -24 6 -36 -6z"/>
</g>
</svg>
